<svg id="Layer_1" xmlns="http://www.w3.org/2000/svg" viewBox="-49 141 512 512"><style>.st0{fill:#FFFFFF;}</style><title>Discarding</title><desc>Port STP is discarding</desc><path class="st0" d="M200.5 194C90.8 194 2 282.8 2 392.5S90.8 591 200.5 591 399 502.2 399 392.5 310.2 194 200.5 194zM41.7 392.5c0-87.7 71.1-158.8 158.8-158.8 36.7 0 70.4 12.6 97.3 33.4L75.1 489.8c-20.8-26.9-33.4-60.6-33.4-97.3zm158.8 158.8c-36.7 0-70.4-12.6-97.3-33.4l222.6-222.6c20.8 26.9 33.4 60.5 33.4 97.3.1 87.6-71 158.7-158.7 158.7z"/></svg>
