<svg id="Layer_1" xmlns="http://www.w3.org/2000/svg" width="18" height="12" viewBox="-630 395 18 12"><style>.st0{fill:#FFFFFF;}</style><title>Mirror</title><desc>Port is mirroring</desc><path class="st0" d="M-621 395c-5 0-9 6-9 6s4 6 9 6 9-6 9-6-4-6-9-6zm3.1 7c0 .1 0 .1-.1.2v.1s0 .1-.1.1v.1c0 .1-.1.2-.2.3l-.1.1c-.2.3-.5.6-.8.8l-.1.1c-.5.3-1.1.5-1.8.5s-1.3-.2-1.8-.6h-.1c-.8-.6-1.4-1.6-1.4-2.6 0-1.1.5-2.1 1.4-2.6h.1c.5-.4 1.1-.6 1.8-.6.6 0 1.2.2 1.8.5l.1.1c.3.2.6.5.8.8l.1.1c.1.1.1.2.2.3v.1s0 .1.1.1v.1s0 .1.1.2c.1.3.1.6.1 1 .1.1 0 .4-.1.8z"/></svg>